<svg xmlns="http://www.w3.org/2000/svg" width="400" height="399" viewBox="0 0 400 399" version="1.1">
    <path d="M 142.784 0.738 C 145.689 0.941, 150.189 0.939, 152.784 0.734 C 155.378 0.528, 153 0.363, 147.500 0.365 C 142 0.368, 139.878 0.536, 142.784 0.738 M 258.269 2.693 C 259.242 2.947, 260.592 2.930, 261.269 2.656 C 261.946 2.382, 261.150 2.175, 259.500 2.195 C 257.850 2.215, 257.296 2.439, 258.269 2.693 M 235.500 4.390 C 232.750 5.061, 229.600 6.182, 228.500 6.880 L 226.500 8.151 228.500 7.445 C 229.600 7.056, 233.197 6.088, 236.493 5.293 C 242.369 3.876, 244.726 2.916, 241.917 3.085 C 241.137 3.132, 238.250 3.719, 235.500 4.390 M 279 6.500 C 283.566 8.258, 285.362 8.232, 281.500 6.464 C 279.850 5.708, 277.825 5.104, 277 5.121 C 276.175 5.138, 277.075 5.759, 279 6.500 M 289.083 10.365 C 289.313 10.565, 290.625 11.265, 292 11.920 C 294.357 13.042, 294.389 13.022, 292.559 11.555 C 290.966 10.279, 287.711 9.164, 289.083 10.365 M 104.861 13.059 L 102.500 15.119 105.250 13.444 C 106.763 12.523, 108 11.597, 108 11.385 C 108 10.604, 107.165 11.050, 104.861 13.059 M 297 14.350 C 297 14.581, 298.180 15.543, 299.623 16.489 C 301.066 17.434, 301.941 17.713, 301.567 17.109 C 300.854 15.955, 297 13.626, 297 14.350 M 93.963 21.673 C 90.073 25.344, 85.951 29.731, 84.805 31.423 C 83.659 33.115, 84.827 32.156, 87.402 29.291 C 89.976 26.427, 94.419 22.039, 97.274 19.541 C 100.129 17.044, 102.144 15, 101.752 15 C 101.359 15, 97.854 18.003, 93.963 21.673 M 195 15.313 C 195 15.560, 196.652 17.023, 198.671 18.563 C 200.690 20.103, 202.027 20.852, 201.641 20.228 C 200.850 18.948, 195 14.619, 195 15.313 M 312 26.500 C 313.866 28.425, 315.617 30, 315.892 30 C 316.167 30, 314.866 28.425, 313 26.500 C 311.134 24.575, 309.383 23, 309.108 23 C 308.833 23, 310.134 24.575, 312 26.500 M 326.080 46 C 327.538 49.061, 328 49.628, 328 48.358 C 328 47.821, 327.300 46.509, 326.445 45.441 C 324.978 43.611, 324.958 43.643, 326.080 46 M 187.352 48.961 C 175.412 50.325, 164.369 52.901, 152.850 57.010 C 110.613 72.076, 77.318 106.998, 63.714 150.500 C 58.569 166.953, 57.546 174.230, 57.530 194.500 C 57.513 215.538, 59.116 225.668, 65.190 242.881 C 79.999 284.850, 114.358 319.045, 155.562 332.821 C 173.210 338.722, 178.604 339.503, 201.500 339.470 C 221.029 339.443, 223.267 339.248, 233.446 336.692 C 257.948 330.541, 277.193 320.465, 295.686 304.107 C 319.479 283.062, 334.678 257.138, 342.071 224.990 C 345.410 210.472, 345.880 186.286, 343.131 170.500 C 340.338 154.463, 336.179 141.600, 329.603 128.657 C 311.952 93.920, 281.161 67.234, 245.383 55.668 C 226.995 49.723, 203.978 47.063, 187.352 48.961 M 73.202 51.718 C 71.678 55.688, 70.657 59.587, 71.296 58.997 C 72.058 58.292, 74.982 49.648, 74.590 49.257 C 74.414 49.080, 73.789 50.188, 73.202 51.718 M 328.101 50 C 328.064 50.275, 329.166 53.425, 330.551 57 C 331.936 60.575, 332.794 62.150, 332.458 60.500 C 331.883 57.679, 328.247 48.917, 328.101 50 M 185 61.367 C 177.969 62.429, 177.500 62.656, 177.500 65 C 177.500 67.364, 177.759 67.481, 182.250 67.160 C 184.863 66.973, 187 67.001, 187 67.223 C 187 67.445, 184.709 72.245, 181.910 77.890 C 179.110 83.535, 176.973 88.304, 177.160 88.489 C 177.817 89.140, 196.066 86.491, 196.033 85.750 C 196.015 85.338, 196 84.121, 196 83.047 C 196 81.285, 195.500 81.153, 190.865 81.702 C 187.928 82.050, 185.902 81.923, 186.131 81.405 C 186.352 80.907, 188.663 76.047, 191.266 70.604 C 193.870 65.161, 196 60.549, 196 60.354 C 196 59.850, 193.544 60.076, 185 61.367 M 224.551 65.957 C 212.630 73.815, 218.256 91.553, 232.421 90.771 C 236.825 90.529, 237.441 90.204, 238.276 87.688 C 238.789 86.141, 239.045 84.712, 238.845 84.512 C 238.646 84.312, 236.579 84.657, 234.252 85.278 C 230.503 86.279, 229.708 86.174, 227.261 84.354 C 223.144 81.292, 222.857 74.964, 226.674 71.427 C 230.084 68.266, 234.034 68.701, 238.203 72.695 C 241.209 75.575, 241.693 75.550, 242.017 72.500 C 242.413 68.783, 242.008 67.976, 238.750 65.989 C 234.592 63.454, 228.370 63.440, 224.551 65.957 M 333.702 69 C 334.015 72.025, 334.435 74.688, 334.635 74.917 C 335.336 75.718, 334.793 68.478, 333.966 66 C 333.428 64.386, 333.334 65.449, 333.702 69 M 153.034 69.438 C 150.028 70.735, 147.417 72.248, 147.233 72.801 C 146.650 74.549, 155.416 96, 156.713 96 C 158.990 96, 168.997 91.514, 168.983 90.500 C 168.976 89.950, 168.562 88.856, 168.063 88.068 C 167.302 86.865, 166.489 86.836, 162.981 87.887 C 158.222 89.313, 158.382 89.372, 157.505 85.876 C 156.934 83.603, 157.221 83.161, 159.668 82.547 C 163.607 81.558, 164.881 80.261, 164.257 77.873 C 163.843 76.292, 163.177 75.956, 161.360 76.410 C 160.062 76.735, 157.875 77.277, 156.500 77.617 C 152.287 78.656, 153.501 75.417, 158 73.617 C 162.388 71.861, 162.466 71.739, 160.965 68.934 C 159.690 66.553, 159.729 66.550, 153.034 69.438 M 67.947 70.250 C 67.455 72.566, 66.940 82.359, 67.329 81.984 C 68.022 81.317, 69.106 70, 68.477 70 C 68.215 70, 67.976 70.112, 67.947 70.250 M 335.232 81 C 335.232 82.925, 335.438 83.713, 335.689 82.750 C 335.941 81.787, 335.941 80.213, 335.689 79.250 C 335.438 78.287, 335.232 79.075, 335.232 81 M 257.190 80.966 C 248.843 86.205, 249.443 98.641, 258.304 104.044 C 267.330 109.547, 278 103.066, 278 92.081 C 278 87.683, 277.535 86.463, 274.665 83.331 C 271.766 80.168, 270.620 79.639, 265.915 79.290 C 261.680 78.976, 259.779 79.341, 257.190 80.966 M 123.359 85.923 C 121.632 86.976, 119.918 88.324, 119.551 88.918 C 118.800 90.132, 131.941 109.958, 133.500 109.965 C 134.050 109.967, 135.175 109.535, 136 109.004 C 137.318 108.155, 137.284 107.655, 135.719 104.884 C 134.739 103.149, 134.106 101.560, 134.313 101.354 C 134.519 101.148, 136.588 101.649, 138.911 102.469 C 142.719 103.812, 143.378 103.799, 145.618 102.331 C 148.608 100.372, 148.048 99.748, 141.350 97.576 C 136.440 95.984, 136.205 95.747, 136.298 92.478 C 136.418 88.242, 132.801 83.998, 129.076 84.004 C 127.659 84.006, 125.087 84.869, 123.359 85.923 M 260.660 85.131 C 257.765 86.813, 256.050 91.845, 257.223 95.210 C 258.439 98.699, 263.044 101.278, 266.507 100.409 C 269.803 99.582, 273 95.442, 273 92.002 C 273 86.326, 265.646 82.232, 260.660 85.131 M 57.500 87 C 54.952 88.095, 57.581 88.095, 61 87 C 63.010 86.356, 63.108 86.194, 61.500 86.170 C 60.400 86.154, 58.600 86.527, 57.500 87 M 127 90 C 125.689 90.811, 125.719 91.147, 127.243 92.671 C 128.610 94.038, 129.248 94.152, 130.200 93.200 C 131.926 91.474, 129.132 88.681, 127 90 M 40.872 94.664 C 39.628 96.172, 39.710 96.216, 41.750 95.129 C 44.077 93.889, 44.650 93, 43.122 93 C 42.640 93, 41.627 93.749, 40.872 94.664 M 348.859 95.022 C 351.257 96.110, 353.507 96.981, 353.859 96.958 C 355.121 96.876, 347.468 93.083, 346 93.064 C 345.175 93.053, 346.462 93.934, 348.859 95.022 M 190 95.570 C 164.702 99.949, 147.527 108.501, 131.475 124.712 C 92.629 163.941, 93.458 228.209, 133.309 266.908 C 149.314 282.452, 168.745 291.415, 192.203 294.076 C 216.354 296.816, 242.200 288.902, 262.720 272.484 C 273.271 264.042, 282.788 252.100, 289.004 239.500 C 321.111 174.420, 276.111 97.742, 204.500 95.511 C 197.900 95.305, 191.375 95.332, 190 95.570 M 35.861 98.059 L 33.500 100.119 36.250 98.444 C 37.763 97.523, 39 96.597, 39 96.385 C 39 95.604, 38.165 96.050, 35.861 98.059 M 355 97.449 C 355 97.724, 356.350 98.647, 358 99.500 C 359.650 100.353, 361 100.826, 361 100.551 C 361 100.276, 359.650 99.353, 358 98.500 C 356.350 97.647, 355 97.174, 355 97.449 M 182.255 101.084 C 162.620 105.207, 146.704 114.098, 132.940 128.630 C 109.863 152.995, 101.192 187.906, 110.051 220.789 C 118.378 251.694, 143.859 277.805, 174.549 286.880 C 198.439 293.945, 226.431 290.681, 247.500 278.375 C 256.745 272.975, 259.216 271.069, 267.728 262.774 C 304.770 226.676, 305.081 164.629, 268.406 127.591 C 245.217 104.173, 213.708 94.478, 182.255 101.084 M 291 106.278 C 288.525 108.605, 284.350 112.375, 281.723 114.655 L 276.946 118.800 280.723 123.336 C 284.829 128.267, 286.086 128.807, 288.024 126.471 C 289.078 125.201, 288.887 124.504, 286.897 122.363 L 284.500 119.784 292.312 112.603 C 299.865 105.660, 300.061 105.365, 298.233 103.711 C 297.193 102.770, 296.153 102.010, 295.921 102.023 C 295.690 102.036, 293.475 103.951, 291 106.278 M 373.072 111.006 C 377.783 115.678, 382.874 121.075, 384.386 123 L 387.135 126.500 384.860 123 C 382.018 118.625, 371.498 107.505, 367.503 104.653 C 365.855 103.476, 368.361 106.335, 373.072 111.006 M 99.464 108.234 C 99.058 109.292, 108.844 131.708, 110.689 133.944 C 110.891 134.189, 111.971 133.474, 113.089 132.355 L 115.123 130.322 113.022 126.762 L 110.922 123.202 113.273 120.469 C 115.515 117.862, 115.794 117.796, 119.247 119.045 C 122.218 120.119, 123.149 120.121, 124.434 119.055 C 125.295 118.340, 126 117.246, 126 116.623 C 126 116, 120.735 113.693, 114.299 111.495 C 99.608 106.479, 100.096 106.586, 99.464 108.234 M 107 116 C 107 116.550, 107.675 117, 108.500 117 C 109.325 117, 110 116.550, 110 116 C 110 115.450, 109.325 115, 108.500 115 C 107.675 115, 107 115.450, 107 116 M 196.101 121.020 C 194.469 123.273, 192.845 126.552, 192.492 128.308 C 191.416 133.663, 190.905 135, 189.933 135 C 189.420 135, 189 134.235, 189 133.300 C 189 132.070, 188.698 131.902, 187.906 132.694 C 187.305 133.295, 186.751 136.456, 186.676 139.718 C 186.474 148.506, 190.173 153.128, 198.993 155.110 C 203.735 156.175, 209.201 154.361, 210.920 151.150 C 212.463 148.267, 212.197 140.844, 210.468 138.559 C 209.661 137.491, 209 135.756, 209 134.702 C 209 133.465, 208.501 132.978, 207.592 133.326 C 206.118 133.892, 204.451 129.697, 205.486 128.023 C 205.787 127.536, 205.606 126.875, 205.085 126.553 C 204.564 126.231, 203.856 126.425, 203.510 126.984 C 202.058 129.333, 201 127.678, 201 123.059 C 201 120.341, 200.565 117.849, 200.034 117.521 C 199.502 117.193, 197.733 118.767, 196.101 121.020 M 9.450 128.099 C 8.028 130.904, 7.033 133.367, 7.238 133.571 C 7.443 133.776, 8.818 131.482, 10.295 128.472 C 11.771 125.462, 12.766 123, 12.506 123 C 12.246 123, 10.871 125.295, 9.450 128.099 M 301.500 130.547 C 295.900 134.119, 291.643 137.492, 291.826 138.213 C 292.461 140.723, 297.517 147.996, 298.628 147.998 C 299.248 147.999, 300.299 147.344, 300.964 146.543 C 301.922 145.389, 301.844 144.615, 300.587 142.820 C 298.332 139.601, 298.577 138.676, 302.250 136.548 C 304.038 135.512, 307.868 133.168, 310.762 131.337 C 315.550 128.309, 315.911 127.830, 314.771 126.005 C 314.082 124.902, 313.065 124.038, 312.509 124.084 C 311.954 124.130, 307 127.038, 301.500 130.547 M 388.500 130 C 389.353 131.650, 390.276 133, 390.551 133 C 390.826 133, 390.353 131.650, 389.500 130 C 388.647 128.350, 387.724 127, 387.449 127 C 387.174 127, 387.647 128.350, 388.500 130 M 84.265 129.947 C 83.198 131.656, 83.672 132.574, 88.157 137.481 C 90.966 140.555, 93.092 143.220, 92.882 143.404 C 92.672 143.589, 89.575 143.372, 86 142.924 C 80.518 142.236, 79.304 142.364, 78.250 143.745 C 76.344 146.242, 76.753 147.996, 79.250 148.034 C 80.487 148.052, 86.219 148.492, 91.986 149.012 C 100.683 149.796, 102.717 149.712, 103.909 148.520 C 105.158 147.271, 104.123 145.837, 95.989 137.541 C 90.842 132.294, 86.373 128, 86.056 128 C 85.740 128, 84.934 128.876, 84.265 129.947 M 256.500 135.140 C 253.750 135.630, 249.025 135.971, 246 135.896 C 238.227 135.705, 238.411 135.638, 236.136 139.495 C 235.002 141.417, 232.032 144.428, 229.537 146.187 L 225 149.385 225 164.190 L 225 178.994 228.250 180.337 C 231.037 181.488, 231.835 181.462, 233.852 180.157 C 236.610 178.374, 241 171.763, 241 169.395 C 241 168.033, 241.559 167.895, 244.250 168.593 C 249.546 169.967, 260.488 169.674, 262.372 168.108 C 263.835 166.892, 264.013 164.675, 263.774 150.690 C 263.609 141.036, 263.102 134.582, 262.500 134.456 C 261.950 134.342, 259.250 134.649, 256.500 135.140 M 391.648 135.500 C 394.603 144.228, 397.042 149.986, 396.557 147.088 C 396.242 145.211, 394.857 141.386, 393.478 138.588 C 392.099 135.790, 391.276 134.400, 391.648 135.500 M 3.935 140.671 C 3.376 142.140, 3.050 144.016, 3.210 144.840 C 3.369 145.663, 4 144.461, 4.611 142.168 C 5.862 137.476, 5.475 136.620, 3.935 140.671 M 242 151.316 C 242 160.560, 242.371 165.111, 243.165 165.602 C 245.443 167.010, 258.903 167.326, 260.490 166.008 C 261.694 165.009, 262 162.143, 262 151.878 L 262 139 255.125 139 C 251.344 139, 246.844 138.719, 245.125 138.375 L 242 137.750 242 151.316 M 245.384 143.442 C 244.222 146.469, 245.519 148.430, 249.269 149.316 C 254.263 150.497, 256 149.684, 256 146.162 C 256 143.587, 255.579 143.192, 252.250 142.642 C 246.814 141.743, 245.999 141.838, 245.384 143.442 M 2.195 149.500 C 2.215 151.150, 2.439 151.704, 2.693 150.731 C 2.947 149.758, 2.930 148.408, 2.656 147.731 C 2.382 147.054, 2.175 147.850, 2.195 149.500 M 313.750 153.838 C 305.538 156.279, 302 157.781, 302 158.827 C 302 159.651, 302.757 162.726, 303.683 165.662 C 304.918 169.581, 305.857 171, 307.214 171 C 309.684 171, 310.435 168.688, 309.156 165.019 C 308.249 162.416, 308.380 161.867, 310.132 160.929 C 313.093 159.344, 314.661 160.380, 315.419 164.420 C 315.922 167.100, 316.590 168, 318.077 168 C 320.716 168, 321.453 165.739, 320.090 161.829 C 319.242 159.395, 319.266 158.454, 320.190 157.882 C 322.007 156.760, 322.833 157.667, 324.025 162.093 C 324.966 165.586, 325.387 166.015, 327.302 165.427 C 330.342 164.493, 330.275 164.814, 328.694 158.759 C 326.310 149.629, 327.070 149.880, 313.750 153.838 M 0.624 154.539 C 0.281 155.432, 0.079 159.839, 0.175 164.332 L 0.351 172.500 0.947 163 C 1.591 152.726, 1.566 152.082, 0.624 154.539 M 253 158.383 C 253 161.035, 253.479 161.892, 255.214 162.346 C 257.825 163.028, 258.967 161.618, 258.215 158.639 C 257.020 153.902, 253 153.705, 253 158.383 M 398.086 157.500 C 398.190 159.394, 399.856 162.584, 399.914 161 C 399.945 160.175, 399.533 158.825, 399 158 C 398.467 157.175, 398.055 156.950, 398.086 157.500 M 187.571 159.571 C 185.448 161.694, 185.595 163.603, 188.010 165.294 C 189.837 166.574, 190.384 170.285, 194.018 206.101 C 196.218 227.771, 198.233 246.087, 198.498 246.805 C 198.825 247.692, 200.507 248.012, 203.740 247.805 L 208.500 247.500 209.157 235.500 C 209.518 228.900, 210.337 210.675, 210.976 195 C 212.047 168.719, 212.288 166.393, 214.069 165.128 C 215.131 164.373, 216 163.001, 216 162.078 C 216 158.588, 213.892 158, 201.371 158 C 191.588 158, 188.829 158.314, 187.571 159.571 M 190.303 160.774 C 189.634 161.209, 189.449 162.109, 189.884 162.812 C 190.451 163.729, 193.624 163.994, 201.581 163.786 C 210.493 163.552, 212.500 163.224, 212.500 162 C 212.500 160.778, 210.554 160.453, 202 160.247 C 196.225 160.108, 190.961 160.345, 190.303 160.774 M 72.667 161.667 C 71.359 162.975, 72.030 165.873, 73.750 166.346 C 83.760 169.096, 96.271 172.063, 96.575 171.758 C 96.785 171.548, 97.079 170.359, 97.228 169.116 C 97.478 167.035, 96.624 166.624, 86.500 163.952 C 74.610 160.814, 73.674 160.660, 72.667 161.667 M 399.336 170 C 399.336 174.125, 399.513 175.813, 399.728 173.750 C 399.944 171.688, 399.944 168.313, 399.728 166.250 C 399.513 164.188, 399.336 165.875, 399.336 170 M 165.169 165.475 C 157.514 167.882, 153.785 173.027, 153.847 181.092 C 153.924 190.923, 160.246 197.231, 170.024 197.231 C 177.166 197.231, 182.920 193.496, 185.587 187.128 C 190.990 174.231, 178.715 161.213, 165.169 165.475 M 192.997 169.050 C 192.994 171.976, 194.372 184.860, 196.610 202.842 C 196.907 205.230, 197.355 206.978, 197.606 206.727 C 198.371 205.962, 194.801 167.566, 193.870 166.550 C 193.361 165.994, 192.999 167.032, 192.997 169.050 M 197.614 166.816 C 197.336 167.265, 197.579 173.678, 198.154 181.066 C 198.728 188.455, 198.934 199.225, 198.611 205 C 198.226 211.886, 198.355 214.984, 198.986 214 C 199.634 212.991, 199.749 214.211, 199.338 217.725 C 199.002 220.599, 199.301 227.935, 200.003 234.027 C 201.197 244.394, 201.414 245.083, 203.389 244.801 C 205.743 244.465, 205.616 245.647, 207.967 202 C 208.574 190.725, 209.345 178.012, 209.680 173.750 C 210.075 168.713, 209.929 166, 209.260 166 C 208.615 166, 207.960 173.441, 207.500 186 C 207.045 198.436, 206.383 206, 205.749 206 C 205.078 206, 204.862 199.276, 205.115 186.341 C 205.411 171.228, 205.211 166.584, 204.250 166.258 C 203.273 165.926, 202.985 171.365, 202.930 191.167 C 202.888 206.244, 202.512 215.690, 202 214.500 C 201.527 213.400, 201.109 208.184, 201.070 202.908 C 200.952 186.750, 199.734 166, 198.904 166 C 198.472 166, 197.891 166.367, 197.614 166.816 M 168.667 167.667 C 168.300 168.033, 168 174.122, 168 181.198 C 168 192.071, 168.248 194.158, 169.601 194.677 C 170.481 195.015, 171.556 194.718, 171.989 194.018 C 172.965 192.438, 173.314 173.101, 172.431 169.579 C 171.812 167.116, 170.092 166.241, 168.667 167.667 M 140.557 178.223 C 139.701 179.445, 139 182.149, 139 184.231 C 139 187.737, 138.856 187.927, 137.045 186.796 C 135.970 186.125, 134.803 185.864, 134.450 186.216 C 133.118 187.549, 135.256 193.013, 138.258 195.948 C 141.465 199.083, 140.154 200.354, 136.823 197.339 C 134.264 195.024, 133.684 196.114, 134.959 200.849 C 135.657 203.439, 137.143 205.678, 139.083 207.059 C 142.401 209.422, 142.451 210.923, 139.143 208.857 C 136.106 206.960, 135.542 208.398, 137.640 212.693 C 138.778 215.022, 140.954 217.276, 143.247 218.500 C 147.756 220.906, 148.133 222.408, 144 221.500 C 141.840 221.026, 141.001 221.213, 141.005 222.171 C 141.014 224.716, 145.549 229.160, 148.818 229.829 C 152.316 230.544, 153.233 232.500, 150.071 232.500 C 146.816 232.500, 146.805 233.658, 150.034 236.376 C 152.223 238.217, 154.306 239, 157.018 239 C 159.143 239, 161.160 239.450, 161.500 240 C 161.869 240.597, 160.649 241, 158.476 241 C 150.726 241, 158.387 247.445, 166.324 247.603 C 173.133 247.738, 174.268 248.124, 170.079 248.882 C 165.713 249.671, 165.190 251.276, 168.724 253.043 C 173.626 255.494, 175.430 255.726, 178.872 254.349 C 182.932 252.725, 184 252.663, 184 254.052 C 184 254.631, 182.650 255.575, 181 256.150 C 177.333 257.428, 177.223 258.325, 180.547 259.839 C 184.210 261.508, 187.078 261.266, 190.500 259 C 195.088 255.962, 200.081 256.519, 196.887 259.713 C 194.622 261.978, 197.069 263.091, 199.724 261.002 C 202.046 259.176, 202.479 259.123, 203.983 260.485 C 205.839 262.165, 209 262.527, 209 261.059 C 209 260.541, 208.550 259.840, 208 259.500 C 207.450 259.160, 207 258.459, 207 257.941 C 207 256.345, 210.785 256.898, 214.226 258.996 C 217.959 261.273, 220.795 261.506, 224.453 259.839 C 227.777 258.325, 227.667 257.428, 224 256.150 C 222.350 255.575, 221 254.631, 221 254.052 C 221 252.720, 223.284 252.684, 224.594 253.994 C 226.287 255.687, 230.565 255.500, 234.904 253.543 C 239.666 251.396, 239.774 249.641, 235.173 249.187 C 229.585 248.635, 231.783 247.146, 237.920 247.326 C 242.522 247.461, 244.455 247.041, 246.607 245.439 C 250.768 242.340, 250.743 241, 246.524 241 C 244.351 241, 243.131 240.597, 243.500 240 C 243.840 239.450, 245.857 239, 247.982 239 C 250.681 239, 252.775 238.219, 254.926 236.409 C 258.373 233.509, 258.138 231.676, 254.439 232.605 C 252.922 232.985, 252 232.786, 252 232.077 C 252 230.888, 252.669 230.569, 257.281 229.557 C 258.940 229.193, 260.855 227.646, 262.027 225.723 C 264.678 221.376, 264.520 220.727, 261 221.500 C 256.896 222.401, 257.221 220.742, 261.553 218.676 C 264.012 217.504, 265.692 215.676, 267.010 212.741 C 268.873 208.591, 268.151 206.449, 265.712 208.888 C 265.101 209.499, 263.902 209.997, 263.050 209.993 C 262.122 209.989, 262.676 209.211, 264.433 208.054 C 267.974 205.719, 269.917 202.452, 269.965 198.750 C 270.007 195.488, 268.973 195.267, 266.494 198.006 C 265.496 199.110, 264.466 199.800, 264.206 199.540 C 263.946 199.280, 265.144 197.461, 266.867 195.499 C 271.004 190.787, 271.313 183.087, 267.200 187.200 C 266.267 188.133, 266 187.678, 266 185.150 C 266 181.692, 263.545 176, 262.054 176 C 261.562 176, 260.842 178.959, 260.455 182.575 C 259.953 187.266, 259.443 188.843, 258.675 188.075 C 256.805 186.205, 255 186.904, 255 189.497 C 255 190.946, 256.469 193.620, 258.500 195.868 C 262.046 199.793, 262.673 201, 261.169 201 C 260.712 201, 259.736 199.875, 259 198.500 C 256.941 194.652, 255 195.343, 255 199.923 C 255 202.699, 255.768 204.759, 257.624 206.966 C 259.068 208.681, 259.906 210.403, 259.488 210.792 C 259.069 211.182, 258.527 210.944, 258.284 210.263 C 257.515 208.111, 254.197 204.475, 253.571 205.098 C 253.240 205.427, 252.880 207.760, 252.770 210.282 C 252.629 213.538, 253.103 215.457, 254.407 216.897 C 255.562 218.174, 255.985 219.588, 255.547 220.713 C 254.962 222.214, 254.639 222, 253.524 219.370 C 251.415 214.393, 250.149 214.414, 248.803 219.447 C 248.133 221.951, 247.040 224, 246.374 224 C 245.708 224, 244.202 225.555, 243.028 227.455 C 241.403 230.084, 241.051 231.757, 241.558 234.455 C 241.995 236.787, 241.842 238, 241.111 238 C 240.500 238, 240 236.664, 240 235.031 C 240 232.959, 239.595 232.218, 238.658 232.578 C 236.839 233.276, 233 240.270, 233 242.886 C 233 244.049, 232.550 245, 232 245 C 231.450 245, 231 243.875, 231 242.500 C 231 241.125, 230.425 240, 229.723 240 C 227.654 240, 222.141 245.590, 221.435 248.404 C 221.076 249.832, 220.382 251, 219.892 251 C 218.741 251, 218.764 249.751, 219.975 246.565 C 220.646 244.801, 220.616 244, 219.880 244 C 217.939 244, 212.996 248.107, 211.533 250.935 C 209.448 254.968, 202.874 256.689, 197.750 254.543 C 195.688 253.680, 194 252.551, 194 252.035 C 194 250.610, 186.881 244, 185.347 244 C 183.743 244, 183.773 243.720, 184.949 247.823 C 185.658 250.293, 185.594 251.033, 184.699 250.738 C 184.040 250.521, 183.359 249.388, 183.187 248.220 C 182.828 245.791, 176.671 240, 174.446 240 C 173.362 240, 173.131 240.674, 173.589 242.500 C 173.964 243.992, 173.788 245, 173.154 245 C 172.569 245, 171.800 243.451, 171.445 241.558 C 170.682 237.492, 166.994 232.154, 165.335 232.715 C 164.694 232.933, 163.841 232.073, 163.440 230.805 C 162.453 227.685, 159.752 224.070, 158.380 224.031 C 157.764 224.014, 156.693 221.975, 156 219.500 C 155.307 217.025, 154.397 215, 153.977 215 C 153.557 215, 152.530 216.688, 151.695 218.750 C 150.507 221.681, 150.028 222.128, 149.499 220.796 C 149.115 219.832, 149.511 218.108, 150.411 216.824 C 152.396 213.990, 152.546 206.147, 150.629 205.411 C 149.642 205.032, 149.398 203.644, 149.759 200.443 C 150.105 197.380, 149.888 196, 149.063 196 C 148.391 196, 148.093 195.232, 148.385 194.250 C 148.671 193.287, 149.217 191.197, 149.597 189.605 C 150.249 186.879, 150.139 186.748, 147.695 187.362 C 145.167 187.996, 145.083 187.859, 144.421 182.006 C 143.685 175.503, 142.959 174.792, 140.557 178.223 M 399.079 178.668 C 399.036 179.311, 398.741 180.661, 398.424 181.668 C 397.877 183.409, 397.906 183.412, 398.995 181.712 C 399.626 180.729, 399.920 179.379, 399.650 178.712 C 399.295 177.837, 399.136 177.825, 399.079 178.668 M 2.070 181.583 C 2.109 183.188, 2.539 185.400, 3.026 186.500 C 3.617 187.835, 3.714 187.005, 3.317 184 C 2.616 178.700, 1.971 177.449, 2.070 181.583 M 317.185 182.029 C 308.461 183.990, 304.518 194.756, 309.653 202.593 C 311.322 205.140, 318.011 208.336, 320.628 207.837 C 322.838 207.415, 323.439 204.413, 322.529 198.343 C 321.956 194.524, 321.570 194, 319.325 194 C 317.050 194, 316.821 194.330, 317.220 197.044 C 317.758 200.709, 316.212 202.010, 314.348 199.462 C 310.872 194.708, 314.868 187, 320.809 187 C 327.325 187, 331.500 195.428, 327 199.500 C 324.579 201.691, 324.467 203.313, 326.613 205.093 C 328.005 206.249, 328.619 205.991, 331.113 203.200 C 333.396 200.644, 334 199.020, 334 195.435 C 334 185.517, 326.889 179.848, 317.185 182.029 M 89 185.434 L 89 189 78.969 189 C 70.783 189, 68.827 189.288, 68.336 190.567 C 67.283 193.312, 69.238 193.901, 81.758 194.608 L 94 195.300 94 189.650 C 94 186.543, 94.014 183.662, 94.031 183.250 C 94.048 182.838, 92.923 182.358, 91.531 182.184 C 89.237 181.897, 89 182.201, 89 185.434 M 395.144 194.276 C 393.912 198.249, 392.666 202.175, 392.376 203 C 391.906 204.333, 391.968 204.333, 392.934 203 C 394.276 201.147, 398.385 188.052, 397.806 187.473 C 397.575 187.241, 396.377 190.303, 395.144 194.276 M 226.966 188.820 C 221.538 191.226, 217.010 197.609, 217.004 202.864 C 216.999 206.922, 220.150 212.765, 223.818 215.500 C 225.887 217.043, 228.061 217.500, 233.332 217.500 C 239.784 217.500, 240.326 217.319, 243.082 214.234 C 244.687 212.438, 245.999 209.963, 245.997 208.734 C 245.995 206.795, 245.500 207.072, 242.247 210.836 C 238.961 214.639, 238.070 215.131, 235 214.836 L 231.500 214.500 230.588 207.718 C 229.447 199.227, 230.699 191.667, 233.329 191.169 C 236.709 190.529, 239.881 191.990, 241.662 195.006 C 244.271 199.421, 245.832 198.811, 245.750 193.407 C 245.678 188.641, 244.093 186.848, 241.704 188.831 C 240.900 189.498, 239.894 189.545, 238.966 188.958 C 237.289 187.897, 229.258 187.805, 226.966 188.820 M 4.086 190 C 4.055 190.825, 4.467 192.175, 5 193 C 6.181 194.828, 6.181 193.249, 5 190.500 C 4.433 189.181, 4.122 189.011, 4.086 190 M 144.571 197.571 C 142.842 199.301, 142.413 201.481, 143.995 200.503 C 145.114 199.812, 147.325 196, 146.607 196 C 146.352 196, 145.436 196.707, 144.571 197.571 M 8 199.383 C 8 200.456, 10.975 206, 11.551 206 C 11.826 206, 11.308 204.537, 10.399 202.750 C 8.542 199.100, 8 198.339, 8 199.383 M 146.001 208.498 C 145.265 209.873, 144.917 211.251, 145.227 211.561 C 145.538 211.871, 146.479 210.747, 147.319 209.062 C 149.139 205.413, 147.929 204.896, 146.001 208.498 M 76.615 211.088 C 66.124 219.340, 71.428 236, 84.546 236 C 86.551 236, 89.456 235.253, 91.001 234.340 C 94.277 232.405, 98.010 226.265, 97.978 222.864 C 97.939 218.703, 94.329 212.221, 91.128 210.566 C 86.738 208.296, 79.850 208.544, 76.615 211.088 M 16 214 C 17.175 215.650, 18.361 217, 18.636 217 C 18.911 217, 18.175 215.650, 17 214 C 15.825 212.350, 14.639 211, 14.364 211 C 14.089 211, 14.825 212.350, 16 214 M 78.923 216.923 C 75.473 220.374, 75.201 223.714, 78.073 227.365 C 81.859 232.179, 90.531 230.204, 92.473 224.084 C 92.820 222.993, 92.400 220.741, 91.541 219.080 C 88.555 213.304, 83.420 212.427, 78.923 216.923 M 383.775 217.764 C 382.405 219.835, 378.926 224.222, 376.045 227.514 C 371.183 233.069, 371.263 233.019, 377.153 226.815 C 382.741 220.931, 387.898 214, 386.689 214 C 386.456 214, 385.145 215.694, 383.775 217.764 M 25.586 224.667 C 29.484 228.435, 32.936 232.189, 33.257 233.009 C 33.773 234.325, 33.849 234.324, 33.903 233 C 33.937 232.175, 30.485 228.421, 26.232 224.658 L 18.500 217.816 25.586 224.667 M 305.140 219.798 C 303.907 222.185, 301.540 231.876, 302.066 232.387 C 302.304 232.620, 303.391 232.965, 304.480 233.155 C 306.029 233.425, 306.783 232.577, 307.948 229.252 C 309.188 225.713, 309.776 225.106, 311.468 225.614 C 314.710 226.588, 315.024 227.330, 313.907 231.374 C 312.728 235.645, 312.676 235.498, 315.717 236.433 C 317.571 237.002, 318.030 236.655, 318.526 234.307 C 320.010 227.284, 322.500 226.950, 322.500 233.774 C 322.500 237.824, 322.803 238.543, 324.615 238.802 C 326.457 239.065, 326.949 238.234, 328.417 232.393 C 330.391 224.532, 330.647 224.856, 320.527 222.402 C 316.662 221.464, 311.817 220.112, 309.760 219.396 C 306.439 218.242, 305.920 218.287, 305.140 219.798 M 155.468 228.101 C 155.101 229.256, 155.296 230.696, 155.901 231.301 C 156.700 232.100, 157 231.526, 157 229.200 C 157 225.506, 156.423 225.092, 155.468 228.101 M 247.769 229.430 C 247.498 230.843, 247.617 232, 248.032 232 C 249.268 232, 250.138 228.738, 249.163 227.763 C 248.626 227.226, 248.061 227.901, 247.769 229.430 M 128.750 235.079 C 125.587 237.323, 123 239.798, 123 240.579 C 123 242.567, 124.741 242.349, 127.745 239.986 C 131.395 237.115, 131.886 238.466, 128.484 242.017 C 126.259 244.339, 125.882 245.282, 126.807 246.207 C 127.733 247.133, 128.748 247.131, 131.322 246.201 C 136.219 244.430, 136.922 244.763, 133.250 247.115 C 130.139 249.108, 128.839 252, 131.055 252 C 132.478 252, 144 244.127, 144 243.154 C 144 242.729, 143.429 241.601, 142.730 240.646 C 141.547 239.028, 141.199 239.019, 137.622 240.513 C 132.557 242.630, 131.932 241.701, 135.753 237.735 C 138.441 234.944, 138.691 234.260, 137.574 232.750 C 135.779 230.324, 135.260 230.461, 128.750 235.079 M 364.015 239.083 C 364.024 240.412, 364.473 242.175, 365.014 243 C 365.706 244.055, 365.807 243.462, 365.355 241 C 364.564 236.687, 363.995 235.874, 364.015 239.083 M 262.028 239.750 C 262.051 241.147, 269.737 246.883, 274.180 248.819 C 275.426 249.361, 280.987 239.587, 279.995 238.595 C 278.870 237.470, 276.310 239.448, 275.471 242.090 C 274.651 244.674, 273.601 244.510, 268.500 241 C 263.506 237.564, 261.988 237.271, 262.028 239.750 M 28.026 245.421 C 26.828 249.022, 26.054 252.763, 26.308 253.734 C 26.684 255.178, 26.789 255.118, 26.884 253.407 C 26.948 252.255, 27.901 248.694, 29.003 245.492 C 30.104 242.291, 30.825 239.492, 30.605 239.272 C 30.385 239.052, 29.225 241.819, 28.026 245.421 M 258.547 242.923 C 258.233 243.431, 260.007 245.511, 262.488 247.544 C 267.213 251.416, 267.899 253.009, 265.644 254.880 C 264.594 255.752, 263.297 255.217, 259.894 252.512 C 257.477 250.591, 254.938 249.015, 254.250 249.010 C 252.753 248.998, 252.599 251.199, 253.999 252.599 C 254.665 253.265, 253.885 253.468, 251.664 253.209 C 248.900 252.886, 247.873 253.362, 245.665 255.987 C 244.199 257.728, 243 259.783, 243 260.552 C 243 261.563, 242.193 261.789, 240.082 261.366 C 234.654 260.281, 229.723 266.323, 233.200 269.800 C 233.860 270.460, 236.615 271, 239.322 271 C 243.600 271, 244.081 271.198, 242.991 272.511 C 242.070 273.621, 240.403 273.900, 236.703 273.564 C 231.282 273.071, 228 274.192, 228 276.535 C 228 278.268, 230.319 278.435, 233.173 276.907 C 234.650 276.117, 235.517 276.117, 236.307 276.907 C 238.221 278.821, 241.868 278.089, 245.183 275.128 C 248.380 272.271, 248.388 272.241, 246.621 269.544 C 245.081 267.194, 244.290 266.877, 240.672 267.167 C 236.070 267.534, 234.269 265.696, 238.719 265.173 C 240.249 264.993, 241.887 264.471, 242.360 264.013 C 242.833 263.555, 244.567 264.715, 246.213 266.590 C 250.135 271.056, 253.841 271.166, 257.411 266.923 C 260.391 263.382, 260.632 261.348, 258.443 258.223 C 256.475 255.413, 257.274 255.403, 261.045 258.192 L 264.010 260.383 266.755 258.339 C 268.265 257.215, 269.945 255.044, 270.490 253.515 C 271.405 250.944, 271.104 250.403, 266.517 246.367 C 261.569 242.012, 259.629 241.174, 258.547 242.923 M 139.302 250.138 C 135.285 253.357, 133.299 255.615, 133.659 256.553 C 134.476 258.683, 135.741 258.343, 139.268 255.047 C 143.268 251.309, 144.297 252.037, 140.547 255.951 C 138.600 257.983, 137.955 259.435, 138.441 260.690 C 139.062 262.291, 139.490 262.113, 142.143 259.155 C 143.792 257.315, 145.296 255.965, 145.484 256.155 C 145.673 256.345, 145.455 258.525, 145 261 C 144.232 265.188, 145.002 268, 146.917 268 C 147.287 268, 149.316 265.735, 151.428 262.966 C 156.453 256.376, 157.328 257.426, 152.664 264.450 L 149.026 269.931 153.652 272.642 C 157.901 275.132, 158.488 275.236, 160.840 273.917 C 164.263 271.995, 167.355 266.551, 166.640 263.703 C 166.329 262.461, 164.032 260.155, 161.537 258.578 C 159.042 257, 157 255.325, 157 254.855 C 157 252.865, 153.966 254.238, 151.876 257.174 C 149.239 260.878, 148.562 259.905, 149.835 254.241 C 150.798 249.951, 150.640 249.449, 147.500 246.835 C 145.590 245.245, 145.220 245.395, 139.302 250.138 M 368.509 252.961 C 368.917 254.865, 369.818 260.040, 370.511 264.461 C 371.204 268.883, 371.807 271.150, 371.850 269.500 C 371.951 265.730, 369.365 251.020, 368.449 250.149 C 368.074 249.792, 368.101 251.058, 368.509 252.961 M 248.200 258.200 C 246.445 259.955, 246.732 262.448, 248.918 264.425 C 251.573 266.828, 255.411 266.130, 255.830 263.168 C 256.451 258.786, 251.098 255.302, 248.200 258.200 M 156.630 264.750 C 154.941 267.391, 154.529 268.870, 155.238 269.750 C 156.881 271.790, 159.651 271.181, 161.489 268.376 C 162.849 266.301, 162.982 265.255, 162.126 263.376 C 160.628 260.089, 159.419 260.391, 156.630 264.750 M 173.007 268.972 C 172.106 272.320, 171.537 273.027, 170.189 272.472 C 165.573 270.574, 162.950 273.109, 167.421 275.146 C 169.046 275.886, 170 277.128, 170 278.502 C 170 280.168, 170.914 280.957, 173.866 281.842 C 179.484 283.525, 181.691 283.280, 183.443 280.777 C 184.643 279.064, 185 278.929, 185 280.189 C 185 282.240, 190.551 287, 192.942 287 C 195.268 287, 200 283.264, 200 281.427 C 200 280.642, 200.450 280, 201 280 C 201.550 280, 202 281.323, 202 282.941 C 202 286.612, 203.190 287.375, 207.621 286.543 C 212.512 285.626, 215.007 282.809, 214.967 278.250 C 214.915 272.467, 212.261 270, 206.090 270 C 201.258 270, 201 270.134, 201 272.635 L 201 275.270 199.016 272.747 C 194.871 267.478, 188.288 268.733, 185.495 275.325 C 184.399 277.910, 184.025 278.180, 183.478 276.776 C 183.075 275.744, 183.465 274.392, 184.448 273.410 C 185.350 272.507, 185.928 271.285, 185.732 270.695 C 185.122 268.865, 180.654 266.053, 177.319 265.400 C 174.267 264.803, 174.091 264.948, 173.007 268.972 M 223.035 267.934 C 222.466 268.998, 222 270.573, 222 271.434 C 222 273.542, 221.060 273.405, 218.404 270.909 C 217.180 269.760, 215.406 268.972, 214.462 269.159 C 213.056 269.438, 213.401 270.224, 216.371 273.500 C 218.365 275.700, 220.364 278.849, 220.812 280.498 C 221.272 282.193, 222.423 283.650, 223.458 283.850 C 225.068 284.160, 225.222 283.692, 224.726 279.997 C 224.389 277.481, 224.732 274.175, 225.581 271.770 C 226.362 269.558, 227 267.355, 227 266.874 C 227 265.219, 224.069 266.003, 223.035 267.934 M 24.286 271.500 C 24.294 274.250, 24.488 275.256, 24.718 273.736 C 24.947 272.216, 24.941 269.966, 24.704 268.736 C 24.467 267.506, 24.279 268.750, 24.286 271.500 M 284.923 269.923 C 281.752 273.094, 281.365 274.939, 283.163 278.316 C 284.837 281.458, 287.097 282.932, 290.298 282.968 C 293.723 283.007, 298 278.736, 298 275.277 C 298 272.262, 292.914 267, 290 267 C 288.815 267, 286.531 268.315, 284.923 269.923 M 106.806 271.040 C 104.262 273.584, 103.867 274.604, 104.386 277.290 C 105.899 285.121, 115.061 286.405, 118.837 279.316 C 120.635 275.939, 120.248 274.094, 117.077 270.923 C 113.350 267.197, 110.618 267.228, 106.806 271.040 M 176.531 269.950 C 175.788 271.152, 179.691 273.309, 181.069 272.457 C 181.756 272.033, 181.709 271.354, 180.926 270.411 C 179.581 268.790, 177.390 268.560, 176.531 269.950 M 189.972 275.052 C 187.597 279.489, 191.011 284.735, 194.750 282.394 C 196.883 281.058, 197.584 276.409, 195.950 274.440 C 194.228 272.364, 191.247 272.670, 189.972 275.052 M 205.156 277.542 C 205.345 282.548, 206.039 283.440, 209.009 282.497 C 210.456 282.038, 211 280.982, 211 278.633 C 211 275.014, 209.495 273, 206.792 273 C 205.288 273, 205.013 273.764, 205.156 277.542 M 175 276.816 C 175 278.978, 178.028 280.219, 180.131 278.919 C 181.739 277.925, 180.561 276.545, 177.250 275.545 C 175.453 275.002, 175 275.258, 175 276.816 M 370.239 285 C 369.561 290.225, 368.768 295.625, 368.475 297 C 367.986 299.300, 368.020 299.328, 368.902 297.351 C 370.139 294.578, 372.304 279.816, 371.832 277.373 C 371.633 276.343, 370.916 279.775, 370.239 285 M 27.121 293 C 27.104 293.825, 27.708 295.850, 28.464 297.500 C 30.232 301.362, 30.258 299.566, 28.500 295 C 27.759 293.075, 27.138 292.175, 27.121 293 M 144.441 294.438 C 142.523 295.859, 142.524 295.894, 144.500 297.375 C 146.467 298.849, 146.429 299.011, 142.225 307.187 C 137.509 316.359, 137.245 317.496, 139.627 318.410 C 142.068 319.347, 143.050 318.084, 148.500 306.997 L 153.500 296.827 151.139 294.913 C 148.314 292.623, 147.015 292.531, 144.441 294.438 M 251.586 294.635 C 251.241 295.535, 250.678 300.229, 250.335 305.067 L 249.710 313.864 252.895 317.049 C 255.594 319.748, 256.570 320.136, 259.290 319.593 C 261.056 319.240, 263.558 317.895, 264.850 316.603 C 270.047 311.409, 266.181 301.577, 259.022 301.780 L 255.897 301.869 256.562 297.435 C 257.198 293.191, 257.119 293, 254.721 293 C 253.323 293, 251.936 293.723, 251.586 294.635 M 218.500 305.520 C 215.200 306.263, 211.938 306.900, 211.250 306.936 C 210.563 306.971, 210 308.183, 210 309.629 C 210 312.205, 210.100 312.244, 215 311.594 C 217.750 311.230, 219.992 311.059, 219.983 311.216 C 219.973 311.372, 218.670 315.897, 217.086 321.270 C 214.240 330.930, 214.230 331.053, 216.211 332.113 C 217.313 332.703, 218.590 332.806, 219.049 332.343 C 219.767 331.616, 225.312 312.814, 226.743 306.250 C 227.311 303.641, 226.970 303.611, 218.500 305.520 M 179.302 306.012 C 176.877 306.989, 174 311.797, 174 314.874 C 174 315.959, 175.186 318.256, 176.635 319.978 L 179.270 323.109 176.482 326.018 C 174.151 328.451, 173.904 329.179, 174.970 330.464 C 177.001 332.911, 178.219 332.353, 184.168 326.250 C 193.048 317.139, 194.157 313.003, 189.077 307.923 C 186.105 304.951, 183.299 304.402, 179.302 306.012 M 361.222 313.407 C 358.536 318.652, 354.203 324.767, 349.397 330.093 L 341.812 338.500 349.820 330.200 C 355.360 324.460, 359.116 319.426, 362.005 313.874 C 364.302 309.459, 366.019 305.685, 365.821 305.488 C 365.623 305.290, 363.554 308.854, 361.222 313.407 M 34 310 C 35.122 312.200, 36.266 314, 36.541 314 C 36.816 314, 36.122 312.200, 35 310 C 33.878 307.800, 32.734 306, 32.459 306 C 32.184 306, 32.878 307.800, 34 310 M 255.930 308.584 C 254.154 310.724, 255.941 313.500, 259.095 313.500 C 261.816 313.500, 262.843 310.721, 260.960 308.452 C 259.392 306.562, 257.568 306.610, 255.930 308.584 M 180.667 311.667 C 180.300 312.033, 180 313.335, 180 314.560 C 180 317.686, 182.922 318.523, 185.351 316.093 C 187.005 314.440, 187.120 313.850, 186.045 312.555 C 184.720 310.957, 181.850 310.483, 180.667 311.667 M 40.762 320.500 C 41.909 322.150, 45.683 326.200, 49.149 329.500 C 55.313 335.369, 55.288 335.325, 48.025 327.500 C 38.117 316.825, 38.390 317.088, 40.762 320.500 M 337 341.122 C 333.515 344.177, 333.514 344.181, 336.720 342.049 C 338.491 340.871, 340.205 339.478, 340.529 338.953 C 341.493 337.393, 340.693 337.884, 337 341.122 M 327 347 C 325.075 348.054, 323.860 348.935, 324.300 348.958 C 325.359 349.014, 331 346.081, 331 345.474 C 331 344.820, 330.941 344.842, 327 347 M 75.523 346.902 C 76.060 347.428, 77.850 348.179, 79.500 348.570 C 83.370 349.488, 82.501 348.635, 78.023 347.121 C 76.110 346.475, 74.985 346.376, 75.523 346.902 M 88.263 351.043 C 89.232 351.632, 94.857 352.287, 100.763 352.499 L 111.500 352.885 101.500 351.984 C 96 351.489, 90.375 350.833, 89 350.528 C 86.896 350.061, 86.780 350.142, 88.263 351.043 M 129.097 353.440 C 130.252 355.398, 131.390 357, 131.624 357 C 132.335 357, 129.089 351.173, 128.005 350.503 C 127.451 350.160, 127.942 351.482, 129.097 353.440 M 113.052 351.947 C 112.115 352.539, 113.174 352.662, 116.052 352.294 C 118.498 351.981, 120.688 351.562, 120.917 351.362 C 121.855 350.547, 114.388 351.101, 113.052 351.947 M 309.490 353.582 C 308.935 353.816, 305.110 354.434, 300.990 354.957 L 293.500 355.908 301.092 355.480 C 305.268 355.245, 309.768 354.619, 311.092 354.089 C 312.417 353.560, 312.825 353.134, 312 353.142 C 311.175 353.151, 310.046 353.349, 309.490 353.582 M 272.651 354.767 C 272.405 355.170, 276.096 355.651, 280.852 355.836 C 285.608 356.021, 289.275 355.972, 289 355.726 C 288.079 354.903, 273.103 354.024, 272.651 354.767 M 269.500 360 C 268.647 361.650, 268.174 363, 268.449 363 C 268.724 363, 269.647 361.650, 270.500 360 C 271.353 358.350, 271.826 357, 271.551 357 C 271.276 357, 270.353 358.350, 269.500 360 M 139 368.500 C 140.292 369.875, 141.574 371, 141.849 371 C 142.124 371, 141.292 369.875, 140 368.500 C 138.708 367.125, 137.426 366, 137.151 366 C 136.876 366, 137.708 367.125, 139 368.500 M 255.500 376.736 C 251.650 380.393, 249.850 382.435, 251.500 381.274 C 254.425 379.216, 263.871 369.957, 262.958 370.043 C 262.706 370.067, 259.350 373.079, 255.500 376.736 M 144 374.500 C 145.292 375.875, 146.574 377, 146.849 377 C 147.124 377, 146.292 375.875, 145 374.500 C 143.708 373.125, 142.426 372, 142.151 372 C 141.876 372, 142.708 373.125, 144 374.500 M 148.031 377.750 C 148.049 378.163, 149.286 379.364, 150.781 380.420 L 153.500 382.339 151.076 379.670 C 148.528 376.864, 147.980 376.519, 148.031 377.750 M 245 385.089 C 242.846 386.851, 242.804 386.986, 244.694 386.062 C 245.901 385.472, 247.165 384.542, 247.503 383.995 C 248.406 382.534, 247.800 382.799, 245 385.089 M 231.500 392 C 229.300 393.018, 227.852 393.885, 228.282 393.926 C 229.466 394.038, 236 391.181, 236 390.551 C 236 389.874, 236.307 389.775, 231.500 392 M 214.500 396.654 C 208.674 398.098, 194.089 398.043, 186.500 396.548 C 183.526 395.962, 183.522 395.968, 186 397.194 C 189.769 399.058, 214.264 398.742, 220 396.756 C 225.731 394.772, 222.347 394.709, 214.500 396.654" stroke="none" fill="#e7ddb3" fill-rule="evenodd"/>
    <path d="M 132 2.151 C 129.525 2.667, 126.600 3.475, 125.500 3.947 C 124.400 4.419, 120.883 5.813, 117.684 7.046 C 105.584 11.706, 91.866 22.726, 83.505 34.500 C 78.127 42.073, 75.857 46.589, 72.700 56 C 69.322 66.067, 68.543 70.308, 68.157 80.722 L 68 84.944 62.250 86.552 C 52.194 89.364, 47.886 91.264, 39.087 96.766 C 24.950 105.606, 16.774 114.939, 9.036 131.072 C 3.580 142.447, 1.504 151.938, 1.504 165.500 C 1.504 179.336, 3.593 188.616, 9.427 200.705 C 14.925 212.094, 20.014 219.071, 28.040 226.220 L 34.240 231.743 31.589 238.371 C 21.520 263.539, 22.801 287.945, 35.403 310.994 C 40.874 321.002, 54.802 335.145, 64.985 341.034 C 69.101 343.415, 76.526 346.711, 81.485 348.358 C 90.034 351.199, 91.276 351.345, 105.500 351.184 C 113.750 351.090, 122.272 350.898, 124.438 350.757 C 128.302 350.505, 128.445 350.619, 131.938 356.746 C 143.493 377.012, 162.001 390.708, 184.826 395.885 C 196.546 398.543, 206.011 398.564, 217.956 395.957 C 239.641 391.224, 260.161 376.780, 270.021 359.309 L 273.114 353.828 278.307 354.565 C 286.551 355.734, 300.868 355.299, 308.728 353.641 C 330.053 349.143, 351.191 332.843, 361.429 313 C 367.049 302.107, 368.695 296.858, 370.435 284.276 C 371.672 275.326, 371.660 272.771, 370.337 263.776 C 369.505 258.124, 367.931 251.025, 366.837 248 C 363.323 238.279, 363.372 237.961, 369.059 233.621 C 379.825 225.405, 389.848 210.565, 395.144 195 C 398.204 186.006, 398.379 184.702, 398.435 170.500 C 398.485 157.451, 398.187 154.524, 396.145 148 C 388.186 122.582, 371.328 104.083, 347.500 94.619 C 335.137 89.708, 335.524 90.031, 335.300 84.464 C 334.406 62.246, 326.675 42.404, 313.273 27.928 C 302.197 15.965, 287.985 8.349, 267.500 3.399 C 266.400 3.134, 261 2.901, 255.500 2.883 C 238.774 2.827, 220.752 8.752, 207.406 18.695 C 205.704 19.963, 203.772 21, 203.113 21 C 202.454 21, 199.571 19.260, 196.707 17.133 C 186.589 9.620, 176.452 4.835, 165.500 2.403 C 158.696 0.892, 138.767 0.742, 132 2.151 M 187.352 48.961 C 175.412 50.325, 164.369 52.901, 152.850 57.010 C 110.613 72.076, 77.318 106.998, 63.714 150.500 C 58.569 166.953, 57.546 174.230, 57.530 194.500 C 57.513 215.538, 59.116 225.668, 65.190 242.881 C 79.999 284.850, 114.358 319.045, 155.562 332.821 C 173.210 338.722, 178.604 339.503, 201.500 339.470 C 221.029 339.443, 223.267 339.248, 233.446 336.692 C 257.948 330.541, 277.193 320.465, 295.686 304.107 C 319.479 283.062, 334.678 257.138, 342.071 224.990 C 345.410 210.472, 345.880 186.286, 343.131 170.500 C 340.338 154.463, 336.179 141.600, 329.603 128.657 C 311.952 93.920, 281.161 67.234, 245.383 55.668 C 226.995 49.723, 203.978 47.063, 187.352 48.961 M 185 61.367 C 177.969 62.429, 177.500 62.656, 177.500 65 C 177.500 67.364, 177.759 67.481, 182.250 67.160 C 184.863 66.973, 187 67.001, 187 67.223 C 187 67.445, 184.709 72.245, 181.910 77.890 C 179.110 83.535, 176.973 88.304, 177.160 88.489 C 177.817 89.140, 196.066 86.491, 196.033 85.750 C 196.015 85.338, 196 84.121, 196 83.047 C 196 81.285, 195.500 81.153, 190.865 81.702 C 187.928 82.050, 185.902 81.923, 186.131 81.405 C 186.352 80.907, 188.663 76.047, 191.266 70.604 C 193.870 65.161, 196 60.549, 196 60.354 C 196 59.850, 193.544 60.076, 185 61.367 M 224.551 65.957 C 212.630 73.815, 218.256 91.553, 232.421 90.771 C 236.825 90.529, 237.441 90.204, 238.276 87.688 C 238.789 86.141, 239.045 84.712, 238.845 84.512 C 238.646 84.312, 236.579 84.657, 234.252 85.278 C 230.503 86.279, 229.708 86.174, 227.261 84.354 C 223.144 81.292, 222.857 74.964, 226.674 71.427 C 230.084 68.266, 234.034 68.701, 238.203 72.695 C 241.209 75.575, 241.693 75.550, 242.017 72.500 C 242.413 68.783, 242.008 67.976, 238.750 65.989 C 234.592 63.454, 228.370 63.440, 224.551 65.957 M 153.034 69.438 C 150.028 70.735, 147.417 72.248, 147.233 72.801 C 146.650 74.549, 155.416 96, 156.713 96 C 158.990 96, 168.997 91.514, 168.983 90.500 C 168.976 89.950, 168.562 88.856, 168.063 88.068 C 167.302 86.865, 166.489 86.836, 162.981 87.887 C 158.222 89.313, 158.382 89.372, 157.505 85.876 C 156.934 83.603, 157.221 83.161, 159.668 82.547 C 163.607 81.558, 164.881 80.261, 164.257 77.873 C 163.843 76.292, 163.177 75.956, 161.360 76.410 C 160.062 76.735, 157.875 77.277, 156.500 77.617 C 152.287 78.656, 153.501 75.417, 158 73.617 C 162.388 71.861, 162.466 71.739, 160.965 68.934 C 159.690 66.553, 159.729 66.550, 153.034 69.438 M 257.190 80.966 C 248.843 86.205, 249.443 98.641, 258.304 104.044 C 267.330 109.547, 278 103.066, 278 92.081 C 278 87.683, 277.535 86.463, 274.665 83.331 C 271.766 80.168, 270.620 79.639, 265.915 79.290 C 261.680 78.976, 259.779 79.341, 257.190 80.966 M 123.359 85.923 C 121.632 86.976, 119.918 88.324, 119.551 88.918 C 118.800 90.132, 131.941 109.958, 133.500 109.965 C 134.050 109.967, 135.175 109.535, 136 109.004 C 137.318 108.155, 137.284 107.655, 135.719 104.884 C 134.739 103.149, 134.106 101.560, 134.313 101.354 C 134.519 101.148, 136.588 101.649, 138.911 102.469 C 142.719 103.812, 143.378 103.799, 145.618 102.331 C 148.608 100.372, 148.048 99.748, 141.350 97.576 C 136.440 95.984, 136.205 95.747, 136.298 92.478 C 136.418 88.242, 132.801 83.998, 129.076 84.004 C 127.659 84.006, 125.087 84.869, 123.359 85.923 M 260.660 85.131 C 257.765 86.813, 256.050 91.845, 257.223 95.210 C 258.439 98.699, 263.044 101.278, 266.507 100.409 C 269.803 99.582, 273 95.442, 273 92.002 C 273 86.326, 265.646 82.232, 260.660 85.131 M 127 90 C 125.689 90.811, 125.719 91.147, 127.243 92.671 C 128.610 94.038, 129.248 94.152, 130.200 93.200 C 131.926 91.474, 129.132 88.681, 127 90 M 190 95.570 C 164.702 99.949, 147.527 108.501, 131.475 124.712 C 92.629 163.941, 93.458 228.209, 133.309 266.908 C 149.314 282.452, 168.745 291.415, 192.203 294.076 C 216.354 296.816, 242.200 288.902, 262.720 272.484 C 273.271 264.042, 282.788 252.100, 289.004 239.500 C 321.111 174.420, 276.111 97.742, 204.500 95.511 C 197.900 95.305, 191.375 95.332, 190 95.570 M 182.255 101.084 C 162.620 105.207, 146.704 114.098, 132.940 128.630 C 109.863 152.995, 101.192 187.906, 110.051 220.789 C 118.378 251.694, 143.859 277.805, 174.549 286.880 C 198.439 293.945, 226.431 290.681, 247.500 278.375 C 256.745 272.975, 259.216 271.069, 267.728 262.774 C 304.770 226.676, 305.081 164.629, 268.406 127.591 C 245.217 104.173, 213.708 94.478, 182.255 101.084 M 291 106.278 C 288.525 108.605, 284.350 112.375, 281.723 114.655 L 276.946 118.800 280.723 123.336 C 284.829 128.267, 286.086 128.807, 288.024 126.471 C 289.078 125.201, 288.887 124.504, 286.897 122.363 L 284.500 119.784 292.312 112.603 C 299.865 105.660, 300.061 105.365, 298.233 103.711 C 297.193 102.770, 296.153 102.010, 295.921 102.023 C 295.690 102.036, 293.475 103.951, 291 106.278 M 99.464 108.234 C 99.058 109.292, 108.844 131.708, 110.689 133.944 C 110.891 134.189, 111.971 133.474, 113.089 132.355 L 115.123 130.322 113.022 126.762 L 110.922 123.202 113.273 120.469 C 115.515 117.862, 115.794 117.796, 119.247 119.045 C 122.218 120.119, 123.149 120.121, 124.434 119.055 C 125.295 118.340, 126 117.246, 126 116.623 C 126 116, 120.735 113.693, 114.299 111.495 C 99.608 106.479, 100.096 106.586, 99.464 108.234 M 107 116 C 107 116.550, 107.675 117, 108.500 117 C 109.325 117, 110 116.550, 110 116 C 110 115.450, 109.325 115, 108.500 115 C 107.675 115, 107 115.450, 107 116 M 196.101 121.020 C 194.469 123.273, 192.845 126.552, 192.492 128.308 C 191.416 133.663, 190.905 135, 189.933 135 C 189.420 135, 189 134.235, 189 133.300 C 189 132.070, 188.698 131.902, 187.906 132.694 C 187.305 133.295, 186.751 136.456, 186.676 139.718 C 186.474 148.506, 190.173 153.128, 198.993 155.110 C 203.735 156.175, 209.201 154.361, 210.920 151.150 C 212.463 148.267, 212.197 140.844, 210.468 138.559 C 209.661 137.491, 209 135.756, 209 134.702 C 209 133.465, 208.501 132.978, 207.592 133.326 C 206.118 133.892, 204.451 129.697, 205.486 128.023 C 205.787 127.536, 205.606 126.875, 205.085 126.553 C 204.564 126.231, 203.856 126.425, 203.510 126.984 C 202.058 129.333, 201 127.678, 201 123.059 C 201 120.341, 200.565 117.849, 200.034 117.521 C 199.502 117.193, 197.733 118.767, 196.101 121.020 M 301.500 130.547 C 295.900 134.119, 291.643 137.492, 291.826 138.213 C 292.461 140.723, 297.517 147.996, 298.628 147.998 C 299.248 147.999, 300.299 147.344, 300.964 146.543 C 301.922 145.389, 301.844 144.615, 300.587 142.820 C 298.332 139.601, 298.577 138.676, 302.250 136.548 C 304.038 135.512, 307.868 133.168, 310.762 131.337 C 315.550 128.309, 315.911 127.830, 314.771 126.005 C 314.082 124.902, 313.065 124.038, 312.509 124.084 C 311.954 124.130, 307 127.038, 301.500 130.547 M 84.265 129.947 C 83.198 131.656, 83.672 132.574, 88.157 137.481 C 90.966 140.555, 93.092 143.220, 92.882 143.404 C 92.672 143.589, 89.575 143.372, 86 142.924 C 80.518 142.236, 79.304 142.364, 78.250 143.745 C 76.344 146.242, 76.753 147.996, 79.250 148.034 C 80.487 148.052, 86.219 148.492, 91.986 149.012 C 100.683 149.796, 102.717 149.712, 103.909 148.520 C 105.158 147.271, 104.123 145.837, 95.989 137.541 C 90.842 132.294, 86.373 128, 86.056 128 C 85.740 128, 84.934 128.876, 84.265 129.947 M 256.500 135.140 C 253.750 135.630, 249.025 135.971, 246 135.896 C 238.227 135.705, 238.411 135.638, 236.136 139.495 C 235.002 141.417, 232.032 144.428, 229.537 146.187 L 225 149.385 225 164.190 L 225 178.994 228.250 180.337 C 231.037 181.488, 231.835 181.462, 233.852 180.157 C 236.610 178.374, 241 171.763, 241 169.395 C 241 168.033, 241.559 167.895, 244.250 168.593 C 249.546 169.967, 260.488 169.674, 262.372 168.108 C 263.835 166.892, 264.013 164.675, 263.774 150.690 C 263.609 141.036, 263.102 134.582, 262.500 134.456 C 261.950 134.342, 259.250 134.649, 256.500 135.140 M 242 151.316 C 242 160.560, 242.371 165.111, 243.165 165.602 C 245.443 167.010, 258.903 167.326, 260.490 166.008 C 261.694 165.009, 262 162.143, 262 151.878 L 262 139 255.125 139 C 251.344 139, 246.844 138.719, 245.125 138.375 L 242 137.750 242 151.316 M 245.384 143.442 C 244.222 146.469, 245.519 148.430, 249.269 149.316 C 254.263 150.497, 256 149.684, 256 146.162 C 256 143.587, 255.579 143.192, 252.250 142.642 C 246.814 141.743, 245.999 141.838, 245.384 143.442 M 313.750 153.838 C 305.538 156.279, 302 157.781, 302 158.827 C 302 159.651, 302.757 162.726, 303.683 165.662 C 304.918 169.581, 305.857 171, 307.214 171 C 309.684 171, 310.435 168.688, 309.156 165.019 C 308.249 162.416, 308.380 161.867, 310.132 160.929 C 313.093 159.344, 314.661 160.380, 315.419 164.420 C 315.922 167.100, 316.590 168, 318.077 168 C 320.716 168, 321.453 165.739, 320.090 161.829 C 319.242 159.395, 319.266 158.454, 320.190 157.882 C 322.007 156.760, 322.833 157.667, 324.025 162.093 C 324.966 165.586, 325.387 166.015, 327.302 165.427 C 330.342 164.493, 330.275 164.814, 328.694 158.759 C 326.310 149.629, 327.070 149.880, 313.750 153.838 M 253 158.383 C 253 161.035, 253.479 161.892, 255.214 162.346 C 257.825 163.028, 258.967 161.618, 258.215 158.639 C 257.020 153.902, 253 153.705, 253 158.383 M 187.571 159.571 C 185.448 161.694, 185.595 163.603, 188.010 165.294 C 189.837 166.574, 190.384 170.285, 194.018 206.101 C 196.218 227.771, 198.233 246.087, 198.498 246.805 C 198.825 247.692, 200.507 248.012, 203.740 247.805 L 208.500 247.500 209.157 235.500 C 209.518 228.900, 210.337 210.675, 210.976 195 C 212.047 168.719, 212.288 166.393, 214.069 165.128 C 215.131 164.373, 216 163.001, 216 162.078 C 216 158.588, 213.892 158, 201.371 158 C 191.588 158, 188.829 158.314, 187.571 159.571 M 190.303 160.774 C 189.634 161.209, 189.449 162.109, 189.884 162.812 C 190.451 163.729, 193.624 163.994, 201.581 163.786 C 210.493 163.552, 212.500 163.224, 212.500 162 C 212.500 160.778, 210.554 160.453, 202 160.247 C 196.225 160.108, 190.961 160.345, 190.303 160.774 M 72.667 161.667 C 71.359 162.975, 72.030 165.873, 73.750 166.346 C 83.760 169.096, 96.271 172.063, 96.575 171.758 C 96.785 171.548, 97.079 170.359, 97.228 169.116 C 97.478 167.035, 96.624 166.624, 86.500 163.952 C 74.610 160.814, 73.674 160.660, 72.667 161.667 M 165.169 165.475 C 157.514 167.882, 153.785 173.027, 153.847 181.092 C 153.924 190.923, 160.246 197.231, 170.024 197.231 C 177.166 197.231, 182.920 193.496, 185.587 187.128 C 190.990 174.231, 178.715 161.213, 165.169 165.475 M 192.997 169.050 C 192.994 171.976, 194.372 184.860, 196.610 202.842 C 196.907 205.230, 197.355 206.978, 197.606 206.727 C 198.371 205.962, 194.801 167.566, 193.870 166.550 C 193.361 165.994, 192.999 167.032, 192.997 169.050 M 197.614 166.816 C 197.336 167.265, 197.579 173.678, 198.154 181.066 C 198.728 188.455, 198.934 199.225, 198.611 205 C 198.226 211.886, 198.355 214.984, 198.986 214 C 199.634 212.991, 199.749 214.211, 199.338 217.725 C 199.002 220.599, 199.301 227.935, 200.003 234.027 C 201.197 244.394, 201.414 245.083, 203.389 244.801 C 205.743 244.465, 205.616 245.647, 207.967 202 C 208.574 190.725, 209.345 178.012, 209.680 173.750 C 210.075 168.713, 209.929 166, 209.260 166 C 208.615 166, 207.960 173.441, 207.500 186 C 207.045 198.436, 206.383 206, 205.749 206 C 205.078 206, 204.862 199.276, 205.115 186.341 C 205.411 171.228, 205.211 166.584, 204.250 166.258 C 203.273 165.926, 202.985 171.365, 202.930 191.167 C 202.888 206.244, 202.512 215.690, 202 214.500 C 201.527 213.400, 201.109 208.184, 201.070 202.908 C 200.952 186.750, 199.734 166, 198.904 166 C 198.472 166, 197.891 166.367, 197.614 166.816 M 168.667 167.667 C 168.300 168.033, 168 174.122, 168 181.198 C 168 192.071, 168.248 194.158, 169.601 194.677 C 170.481 195.015, 171.556 194.718, 171.989 194.018 C 172.965 192.438, 173.314 173.101, 172.431 169.579 C 171.812 167.116, 170.092 166.241, 168.667 167.667 M 140.557 178.223 C 139.701 179.445, 139 182.149, 139 184.231 C 139 187.737, 138.856 187.927, 137.045 186.796 C 135.970 186.125, 134.803 185.864, 134.450 186.216 C 133.118 187.549, 135.256 193.013, 138.258 195.948 C 141.465 199.083, 140.154 200.354, 136.823 197.339 C 134.264 195.024, 133.684 196.114, 134.959 200.849 C 135.657 203.439, 137.143 205.678, 139.083 207.059 C 142.401 209.422, 142.451 210.923, 139.143 208.857 C 136.106 206.960, 135.542 208.398, 137.640 212.693 C 138.778 215.022, 140.954 217.276, 143.247 218.500 C 147.756 220.906, 148.133 222.408, 144 221.500 C 141.840 221.026, 141.001 221.213, 141.005 222.171 C 141.014 224.716, 145.549 229.160, 148.818 229.829 C 152.316 230.544, 153.233 232.500, 150.071 232.500 C 146.816 232.500, 146.805 233.658, 150.034 236.376 C 152.223 238.217, 154.306 239, 157.018 239 C 159.143 239, 161.160 239.450, 161.500 240 C 161.869 240.597, 160.649 241, 158.476 241 C 150.726 241, 158.387 247.445, 166.324 247.603 C 173.133 247.738, 174.268 248.124, 170.079 248.882 C 165.713 249.671, 165.190 251.276, 168.724 253.043 C 173.626 255.494, 175.430 255.726, 178.872 254.349 C 182.932 252.725, 184 252.663, 184 254.052 C 184 254.631, 182.650 255.575, 181 256.150 C 177.333 257.428, 177.223 258.325, 180.547 259.839 C 184.210 261.508, 187.078 261.266, 190.500 259 C 195.088 255.962, 200.081 256.519, 196.887 259.713 C 194.622 261.978, 197.069 263.091, 199.724 261.002 C 202.046 259.176, 202.479 259.123, 203.983 260.485 C 205.839 262.165, 209 262.527, 209 261.059 C 209 260.541, 208.550 259.840, 208 259.500 C 207.450 259.160, 207 258.459, 207 257.941 C 207 256.345, 210.785 256.898, 214.226 258.996 C 217.959 261.273, 220.795 261.506, 224.453 259.839 C 227.777 258.325, 227.667 257.428, 224 256.150 C 222.350 255.575, 221 254.631, 221 254.052 C 221 252.720, 223.284 252.684, 224.594 253.994 C 226.287 255.687, 230.565 255.500, 234.904 253.543 C 239.666 251.396, 239.774 249.641, 235.173 249.187 C 229.585 248.635, 231.783 247.146, 237.920 247.326 C 242.522 247.461, 244.455 247.041, 246.607 245.439 C 250.768 242.340, 250.743 241, 246.524 241 C 244.351 241, 243.131 240.597, 243.500 240 C 243.840 239.450, 245.857 239, 247.982 239 C 250.681 239, 252.775 238.219, 254.926 236.409 C 258.373 233.509, 258.138 231.676, 254.439 232.605 C 252.922 232.985, 252 232.786, 252 232.077 C 252 230.888, 252.669 230.569, 257.281 229.557 C 258.940 229.193, 260.855 227.646, 262.027 225.723 C 264.678 221.376, 264.520 220.727, 261 221.500 C 256.896 222.401, 257.221 220.742, 261.553 218.676 C 264.012 217.504, 265.692 215.676, 267.010 212.741 C 268.873 208.591, 268.151 206.449, 265.712 208.888 C 265.101 209.499, 263.902 209.997, 263.050 209.993 C 262.122 209.989, 262.676 209.211, 264.433 208.054 C 267.974 205.719, 269.917 202.452, 269.965 198.750 C 270.007 195.488, 268.973 195.267, 266.494 198.006 C 265.496 199.110, 264.466 199.800, 264.206 199.540 C 263.946 199.280, 265.144 197.461, 266.867 195.499 C 271.004 190.787, 271.313 183.087, 267.200 187.200 C 266.267 188.133, 266 187.678, 266 185.150 C 266 181.692, 263.545 176, 262.054 176 C 261.562 176, 260.842 178.959, 260.455 182.575 C 259.953 187.266, 259.443 188.843, 258.675 188.075 C 256.805 186.205, 255 186.904, 255 189.497 C 255 190.946, 256.469 193.620, 258.500 195.868 C 262.046 199.793, 262.673 201, 261.169 201 C 260.712 201, 259.736 199.875, 259 198.500 C 256.941 194.652, 255 195.343, 255 199.923 C 255 202.699, 255.768 204.759, 257.624 206.966 C 259.068 208.681, 259.906 210.403, 259.488 210.792 C 259.069 211.182, 258.527 210.944, 258.284 210.263 C 257.515 208.111, 254.197 204.475, 253.571 205.098 C 253.240 205.427, 252.880 207.760, 252.770 210.282 C 252.629 213.538, 253.103 215.457, 254.407 216.897 C 255.562 218.174, 255.985 219.588, 255.547 220.713 C 254.962 222.214, 254.639 222, 253.524 219.370 C 251.415 214.393, 250.149 214.414, 248.803 219.447 C 248.133 221.951, 247.040 224, 246.374 224 C 245.708 224, 244.202 225.555, 243.028 227.455 C 241.403 230.084, 241.051 231.757, 241.558 234.455 C 241.995 236.787, 241.842 238, 241.111 238 C 240.500 238, 240 236.664, 240 235.031 C 240 232.959, 239.595 232.218, 238.658 232.578 C 236.839 233.276, 233 240.270, 233 242.886 C 233 244.049, 232.550 245, 232 245 C 231.450 245, 231 243.875, 231 242.500 C 231 241.125, 230.425 240, 229.723 240 C 227.654 240, 222.141 245.590, 221.435 248.404 C 221.076 249.832, 220.382 251, 219.892 251 C 218.741 251, 218.764 249.751, 219.975 246.565 C 220.646 244.801, 220.616 244, 219.880 244 C 217.939 244, 212.996 248.107, 211.533 250.935 C 209.448 254.968, 202.874 256.689, 197.750 254.543 C 195.688 253.680, 194 252.551, 194 252.035 C 194 250.610, 186.881 244, 185.347 244 C 183.743 244, 183.773 243.720, 184.949 247.823 C 185.658 250.293, 185.594 251.033, 184.699 250.738 C 184.040 250.521, 183.359 249.388, 183.187 248.220 C 182.828 245.791, 176.671 240, 174.446 240 C 173.362 240, 173.131 240.674, 173.589 242.500 C 173.964 243.992, 173.788 245, 173.154 245 C 172.569 245, 171.800 243.451, 171.445 241.558 C 170.682 237.492, 166.994 232.154, 165.335 232.715 C 164.694 232.933, 163.841 232.073, 163.440 230.805 C 162.453 227.685, 159.752 224.070, 158.380 224.031 C 157.764 224.014, 156.693 221.975, 156 219.500 C 155.307 217.025, 154.397 215, 153.977 215 C 153.557 215, 152.530 216.688, 151.695 218.750 C 150.507 221.681, 150.028 222.128, 149.499 220.796 C 149.115 219.832, 149.511 218.108, 150.411 216.824 C 152.396 213.990, 152.546 206.147, 150.629 205.411 C 149.642 205.032, 149.398 203.644, 149.759 200.443 C 150.105 197.380, 149.888 196, 149.063 196 C 148.391 196, 148.093 195.232, 148.385 194.250 C 148.671 193.287, 149.217 191.197, 149.597 189.605 C 150.249 186.879, 150.139 186.748, 147.695 187.362 C 145.167 187.996, 145.083 187.859, 144.421 182.006 C 143.685 175.503, 142.959 174.792, 140.557 178.223 M 317.185 182.029 C 308.461 183.990, 304.518 194.756, 309.653 202.593 C 311.322 205.140, 318.011 208.336, 320.628 207.837 C 322.838 207.415, 323.439 204.413, 322.529 198.343 C 321.956 194.524, 321.570 194, 319.325 194 C 317.050 194, 316.821 194.330, 317.220 197.044 C 317.758 200.709, 316.212 202.010, 314.348 199.462 C 310.872 194.708, 314.868 187, 320.809 187 C 327.325 187, 331.500 195.428, 327 199.500 C 324.579 201.691, 324.467 203.313, 326.613 205.093 C 328.005 206.249, 328.619 205.991, 331.113 203.200 C 333.396 200.644, 334 199.020, 334 195.435 C 334 185.517, 326.889 179.848, 317.185 182.029 M 89 185.434 L 89 189 78.969 189 C 70.783 189, 68.827 189.288, 68.336 190.567 C 67.283 193.312, 69.238 193.901, 81.758 194.608 L 94 195.300 94 189.650 C 94 186.543, 94.014 183.662, 94.031 183.250 C 94.048 182.838, 92.923 182.358, 91.531 182.184 C 89.237 181.897, 89 182.201, 89 185.434 M 226.966 188.820 C 221.538 191.226, 217.010 197.609, 217.004 202.864 C 216.999 206.922, 220.150 212.765, 223.818 215.500 C 225.887 217.043, 228.061 217.500, 233.332 217.500 C 239.784 217.500, 240.326 217.319, 243.082 214.234 C 244.687 212.438, 245.999 209.963, 245.997 208.734 C 245.995 206.795, 245.500 207.072, 242.247 210.836 C 238.961 214.639, 238.070 215.131, 235 214.836 L 231.500 214.500 230.588 207.718 C 229.447 199.227, 230.699 191.667, 233.329 191.169 C 236.709 190.529, 239.881 191.990, 241.662 195.006 C 244.271 199.421, 245.832 198.811, 245.750 193.407 C 245.678 188.641, 244.093 186.848, 241.704 188.831 C 240.900 189.498, 239.894 189.545, 238.966 188.958 C 237.289 187.897, 229.258 187.805, 226.966 188.820 M 144.571 197.571 C 142.842 199.301, 142.413 201.481, 143.995 200.503 C 145.114 199.812, 147.325 196, 146.607 196 C 146.352 196, 145.436 196.707, 144.571 197.571 M 146.001 208.498 C 145.265 209.873, 144.917 211.251, 145.227 211.561 C 145.538 211.871, 146.479 210.747, 147.319 209.062 C 149.139 205.413, 147.929 204.896, 146.001 208.498 M 76.615 211.088 C 66.124 219.340, 71.428 236, 84.546 236 C 86.551 236, 89.456 235.253, 91.001 234.340 C 94.277 232.405, 98.010 226.265, 97.978 222.864 C 97.939 218.703, 94.329 212.221, 91.128 210.566 C 86.738 208.296, 79.850 208.544, 76.615 211.088 M 78.923 216.923 C 75.473 220.374, 75.201 223.714, 78.073 227.365 C 81.859 232.179, 90.531 230.204, 92.473 224.084 C 92.820 222.993, 92.400 220.741, 91.541 219.080 C 88.555 213.304, 83.420 212.427, 78.923 216.923 M 305.140 219.798 C 303.907 222.185, 301.540 231.876, 302.066 232.387 C 302.304 232.620, 303.391 232.965, 304.480 233.155 C 306.029 233.425, 306.783 232.577, 307.948 229.252 C 309.188 225.713, 309.776 225.106, 311.468 225.614 C 314.710 226.588, 315.024 227.330, 313.907 231.374 C 312.728 235.645, 312.676 235.498, 315.717 236.433 C 317.571 237.002, 318.030 236.655, 318.526 234.307 C 320.010 227.284, 322.500 226.950, 322.500 233.774 C 322.500 237.824, 322.803 238.543, 324.615 238.802 C 326.457 239.065, 326.949 238.234, 328.417 232.393 C 330.391 224.532, 330.647 224.856, 320.527 222.402 C 316.662 221.464, 311.817 220.112, 309.760 219.396 C 306.439 218.242, 305.920 218.287, 305.140 219.798 M 155.468 228.101 C 155.101 229.256, 155.296 230.696, 155.901 231.301 C 156.700 232.100, 157 231.526, 157 229.200 C 157 225.506, 156.423 225.092, 155.468 228.101 M 247.769 229.430 C 247.498 230.843, 247.617 232, 248.032 232 C 249.268 232, 250.138 228.738, 249.163 227.763 C 248.626 227.226, 248.061 227.901, 247.769 229.430 M 128.750 235.079 C 125.587 237.323, 123 239.798, 123 240.579 C 123 242.567, 124.741 242.349, 127.745 239.986 C 131.395 237.115, 131.886 238.466, 128.484 242.017 C 126.259 244.339, 125.882 245.282, 126.807 246.207 C 127.733 247.133, 128.748 247.131, 131.322 246.201 C 136.219 244.430, 136.922 244.763, 133.250 247.115 C 130.139 249.108, 128.839 252, 131.055 252 C 132.478 252, 144 244.127, 144 243.154 C 144 242.729, 143.429 241.601, 142.730 240.646 C 141.547 239.028, 141.199 239.019, 137.622 240.513 C 132.557 242.630, 131.932 241.701, 135.753 237.735 C 138.441 234.944, 138.691 234.260, 137.574 232.750 C 135.779 230.324, 135.260 230.461, 128.750 235.079 M 262.028 239.750 C 262.051 241.147, 269.737 246.883, 274.180 248.819 C 275.426 249.361, 280.987 239.587, 279.995 238.595 C 278.870 237.470, 276.310 239.448, 275.471 242.090 C 274.651 244.674, 273.601 244.510, 268.500 241 C 263.506 237.564, 261.988 237.271, 262.028 239.750 M 258.547 242.923 C 258.233 243.431, 260.007 245.511, 262.488 247.544 C 267.213 251.416, 267.899 253.009, 265.644 254.880 C 264.594 255.752, 263.297 255.217, 259.894 252.512 C 257.477 250.591, 254.938 249.015, 254.250 249.010 C 252.753 248.998, 252.599 251.199, 253.999 252.599 C 254.665 253.265, 253.885 253.468, 251.664 253.209 C 248.900 252.886, 247.873 253.362, 245.665 255.987 C 244.199 257.728, 243 259.783, 243 260.552 C 243 261.563, 242.193 261.789, 240.082 261.366 C 234.654 260.281, 229.723 266.323, 233.200 269.800 C 233.860 270.460, 236.615 271, 239.322 271 C 243.600 271, 244.081 271.198, 242.991 272.511 C 242.070 273.621, 240.403 273.900, 236.703 273.564 C 231.282 273.071, 228 274.192, 228 276.535 C 228 278.268, 230.319 278.435, 233.173 276.907 C 234.650 276.117, 235.517 276.117, 236.307 276.907 C 238.221 278.821, 241.868 278.089, 245.183 275.128 C 248.380 272.271, 248.388 272.241, 246.621 269.544 C 245.081 267.194, 244.290 266.877, 240.672 267.167 C 236.070 267.534, 234.269 265.696, 238.719 265.173 C 240.249 264.993, 241.887 264.471, 242.360 264.013 C 242.833 263.555, 244.567 264.715, 246.213 266.590 C 250.135 271.056, 253.841 271.166, 257.411 266.923 C 260.391 263.382, 260.632 261.348, 258.443 258.223 C 256.475 255.413, 257.274 255.403, 261.045 258.192 L 264.010 260.383 266.755 258.339 C 268.265 257.215, 269.945 255.044, 270.490 253.515 C 271.405 250.944, 271.104 250.403, 266.517 246.367 C 261.569 242.012, 259.629 241.174, 258.547 242.923 M 139.302 250.138 C 135.285 253.357, 133.299 255.615, 133.659 256.553 C 134.476 258.683, 135.741 258.343, 139.268 255.047 C 143.268 251.309, 144.297 252.037, 140.547 255.951 C 138.600 257.983, 137.955 259.435, 138.441 260.690 C 139.062 262.291, 139.490 262.113, 142.143 259.155 C 143.792 257.315, 145.296 255.965, 145.484 256.155 C 145.673 256.345, 145.455 258.525, 145 261 C 144.232 265.188, 145.002 268, 146.917 268 C 147.287 268, 149.316 265.735, 151.428 262.966 C 156.453 256.376, 157.328 257.426, 152.664 264.450 L 149.026 269.931 153.652 272.642 C 157.901 275.132, 158.488 275.236, 160.840 273.917 C 164.263 271.995, 167.355 266.551, 166.640 263.703 C 166.329 262.461, 164.032 260.155, 161.537 258.578 C 159.042 257, 157 255.325, 157 254.855 C 157 252.865, 153.966 254.238, 151.876 257.174 C 149.239 260.878, 148.562 259.905, 149.835 254.241 C 150.798 249.951, 150.640 249.449, 147.500 246.835 C 145.590 245.245, 145.220 245.395, 139.302 250.138 M 248.200 258.200 C 246.445 259.955, 246.732 262.448, 248.918 264.425 C 251.573 266.828, 255.411 266.130, 255.830 263.168 C 256.451 258.786, 251.098 255.302, 248.200 258.200 M 156.630 264.750 C 154.941 267.391, 154.529 268.870, 155.238 269.750 C 156.881 271.790, 159.651 271.181, 161.489 268.376 C 162.849 266.301, 162.982 265.255, 162.126 263.376 C 160.628 260.089, 159.419 260.391, 156.630 264.750 M 173.007 268.972 C 172.106 272.320, 171.537 273.027, 170.189 272.472 C 165.573 270.574, 162.950 273.109, 167.421 275.146 C 169.046 275.886, 170 277.128, 170 278.502 C 170 280.168, 170.914 280.957, 173.866 281.842 C 179.484 283.525, 181.691 283.280, 183.443 280.777 C 184.643 279.064, 185 278.929, 185 280.189 C 185 282.240, 190.551 287, 192.942 287 C 195.268 287, 200 283.264, 200 281.427 C 200 280.642, 200.450 280, 201 280 C 201.550 280, 202 281.323, 202 282.941 C 202 286.612, 203.190 287.375, 207.621 286.543 C 212.512 285.626, 215.007 282.809, 214.967 278.250 C 214.915 272.467, 212.261 270, 206.090 270 C 201.258 270, 201 270.134, 201 272.635 L 201 275.270 199.016 272.747 C 194.871 267.478, 188.288 268.733, 185.495 275.325 C 184.399 277.910, 184.025 278.180, 183.478 276.776 C 183.075 275.744, 183.465 274.392, 184.448 273.410 C 185.350 272.507, 185.928 271.285, 185.732 270.695 C 185.122 268.865, 180.654 266.053, 177.319 265.400 C 174.267 264.803, 174.091 264.948, 173.007 268.972 M 223.035 267.934 C 222.466 268.998, 222 270.573, 222 271.434 C 222 273.542, 221.060 273.405, 218.404 270.909 C 217.180 269.760, 215.406 268.972, 214.462 269.159 C 213.056 269.438, 213.401 270.224, 216.371 273.500 C 218.365 275.700, 220.364 278.849, 220.812 280.498 C 221.272 282.193, 222.423 283.650, 223.458 283.850 C 225.068 284.160, 225.222 283.692, 224.726 279.997 C 224.389 277.481, 224.732 274.175, 225.581 271.770 C 226.362 269.558, 227 267.355, 227 266.874 C 227 265.219, 224.069 266.003, 223.035 267.934 M 284.923 269.923 C 281.752 273.094, 281.365 274.939, 283.163 278.316 C 284.837 281.458, 287.097 282.932, 290.298 282.968 C 293.723 283.007, 298 278.736, 298 275.277 C 298 272.262, 292.914 267, 290 267 C 288.815 267, 286.531 268.315, 284.923 269.923 M 106.806 271.040 C 104.262 273.584, 103.867 274.604, 104.386 277.290 C 105.899 285.121, 115.061 286.405, 118.837 279.316 C 120.635 275.939, 120.248 274.094, 117.077 270.923 C 113.350 267.197, 110.618 267.228, 106.806 271.040 M 176.531 269.950 C 175.788 271.152, 179.691 273.309, 181.069 272.457 C 181.756 272.033, 181.709 271.354, 180.926 270.411 C 179.581 268.790, 177.390 268.560, 176.531 269.950 M 189.972 275.052 C 187.597 279.489, 191.011 284.735, 194.750 282.394 C 196.883 281.058, 197.584 276.409, 195.950 274.440 C 194.228 272.364, 191.247 272.670, 189.972 275.052 M 205.156 277.542 C 205.345 282.548, 206.039 283.440, 209.009 282.497 C 210.456 282.038, 211 280.982, 211 278.633 C 211 275.014, 209.495 273, 206.792 273 C 205.288 273, 205.013 273.764, 205.156 277.542 M 175 276.816 C 175 278.978, 178.028 280.219, 180.131 278.919 C 181.739 277.925, 180.561 276.545, 177.250 275.545 C 175.453 275.002, 175 275.258, 175 276.816 M 144.441 294.438 C 142.523 295.859, 142.524 295.894, 144.500 297.375 C 146.467 298.849, 146.429 299.011, 142.225 307.187 C 137.509 316.359, 137.245 317.496, 139.627 318.410 C 142.068 319.347, 143.050 318.084, 148.500 306.997 L 153.500 296.827 151.139 294.913 C 148.314 292.623, 147.015 292.531, 144.441 294.438 M 251.586 294.635 C 251.241 295.535, 250.678 300.229, 250.335 305.067 L 249.710 313.864 252.895 317.049 C 255.594 319.748, 256.570 320.136, 259.290 319.593 C 261.056 319.240, 263.558 317.895, 264.850 316.603 C 270.047 311.409, 266.181 301.577, 259.022 301.780 L 255.897 301.869 256.562 297.435 C 257.198 293.191, 257.119 293, 254.721 293 C 253.323 293, 251.936 293.723, 251.586 294.635 M 218.500 305.520 C 215.200 306.263, 211.938 306.900, 211.250 306.936 C 210.563 306.971, 210 308.183, 210 309.629 C 210 312.205, 210.100 312.244, 215 311.594 C 217.750 311.230, 219.992 311.059, 219.983 311.216 C 219.973 311.372, 218.670 315.897, 217.086 321.270 C 214.240 330.930, 214.230 331.053, 216.211 332.113 C 217.313 332.703, 218.590 332.806, 219.049 332.343 C 219.767 331.616, 225.312 312.814, 226.743 306.250 C 227.311 303.641, 226.970 303.611, 218.500 305.520 M 179.302 306.012 C 176.877 306.989, 174 311.797, 174 314.874 C 174 315.959, 175.186 318.256, 176.635 319.978 L 179.270 323.109 176.482 326.018 C 174.151 328.451, 173.904 329.179, 174.970 330.464 C 177.001 332.911, 178.219 332.353, 184.168 326.250 C 193.048 317.139, 194.157 313.003, 189.077 307.923 C 186.105 304.951, 183.299 304.402, 179.302 306.012 M 255.930 308.584 C 254.154 310.724, 255.941 313.500, 259.095 313.500 C 261.816 313.500, 262.843 310.721, 260.960 308.452 C 259.392 306.562, 257.568 306.610, 255.930 308.584 M 180.667 311.667 C 180.300 312.033, 180 313.335, 180 314.560 C 180 317.686, 182.922 318.523, 185.351 316.093 C 187.005 314.440, 187.120 313.850, 186.045 312.555 C 184.720 310.957, 181.850 310.483, 180.667 311.667" stroke="none" fill="#096c0f" fill-rule="evenodd"/>
</svg>